Coordinates
version=1
nRows=26
nColumns=24
inDegrees=yes

Units are S.I. units (second, meters, Newtons, ...)
Angles are in degrees.

endheader
time	pelvis_tilt	pelvis_list	pelvis_rotation	pelvis_tx	pelvis_ty	pelvis_tz	hip_flexion_r	hip_adduction_r	hip_rotation_r	knee_angle_r	ankle_angle_r	subtalar_angle_r	mtp_angle_r	hip_flexion_l	hip_adduction_l	hip_rotation_l	knee_angle_l	ankle_angle_l	subtalar_angle_l	mtp_angle_l	lumbar_extension	lumbar_bending	lumbar_rotation
      1.06300000	     -1.46732800	     -4.60886811	     -2.62856245	     -0.13878520	      1.05131400	      0.34503565	    -12.36227586	      9.67110677	      0.86177044	     -4.81685962	      7.40597855	     -9.95242739	      2.26994512	     21.31143081	     -2.55956778	     -8.13871267	      5.01215038	      3.64378202	      5.33977632	      0.00839787	      5.18267907	      8.72956792	      1.07779347
      1.06716667	     -1.44255569	     -4.61864497	     -2.53050321	     -0.13314364	      1.05074714	      0.34485827	    -12.51948442	      9.68142495	      0.79074232	     -5.22062244	      7.70884689	     -9.86584879	      2.28287108	     21.29421233	     -2.45136633	     -8.17446452	      4.94832026	      3.67131503	      5.71009350	     -0.06755642	      5.18565512	      8.70912572	      1.07146911
      1.07133333	     -1.45731029	     -4.62627326	     -2.53882050	     -0.12747781	      1.05021180	      0.34481983	    -12.61365092	      9.66771721	      0.82640592	     -5.66036776	      7.67671792	     -9.86085397	      2.28451108	     21.28183012	     -2.38276677	     -8.13941473	      4.85735830	      3.66304726	      5.74479678	     -0.07682391	      5.21319884	      8.69140308	      1.07161885
      1.07550000	     -1.45913155	     -4.63867967	     -2.53397860	     -0.12179175	      1.04971104	      0.34477561	    -12.70968474	      9.66124568	      0.84979468	     -6.12480617	      7.66153609	     -9.85961473	      2.28674907	     21.26621285	     -2.31981426	     -8.11297796	      4.68042652	      3.63669871	      5.76507836	     -0.08594545	      5.24419385	      8.66936957	      1.07544317
      1.07966667	     -1.45513394	     -4.64253281	     -2.53071338	     -0.11606158	      1.04924218	      0.34475417	    -12.79718510	      9.64595236	      0.85622304	     -6.62364206	      7.65404679	     -9.85928498	      2.28966977	     21.24345289	     -2.25428254	     -8.09089280	      4.43920941	      3.59042710	      5.77162789	     -0.09519713	      5.27392341	      8.63962370	      1.08222245
      1.08383333	     -1.44765514	     -4.64902886	     -2.52861855	     -0.11030961	      1.04880218	      0.34474306	    -12.87166585	      9.63313182	      0.84591705	     -7.15773116	      7.64714573	     -9.85411347	      2.29352816	     21.21749524	     -2.19583841	     -8.07580005	      4.14202605	      3.51591563	      5.75904101	     -0.10500384	      5.30070855	      8.60411688	      1.09182852
      1.08800000	     -1.43650014	     -4.65266978	     -2.52772284	     -0.10451201	      1.04840086	      0.34475317	    -12.93666743	      9.61670788	      0.82692583	     -7.71890251	      7.62971543	     -9.84132125	      2.29798523	     21.18142284	     -2.13958599	     -8.06007601	      3.80363793	      3.41654861	      5.72706499	     -0.11411625	      5.32837763	      8.56569856	      1.10370528
      1.09216667	     -1.46436952	     -4.63262049	     -2.52873144	     -0.09862720	      1.04797551	      0.34466319	    -12.92668907	      9.56478060	      0.65116300	     -8.34519165	      7.63252231	     -9.73602179	      2.31513379	     21.18642620	     -2.04961694	     -8.12015622	      3.43142576	      3.10091126	      5.55433250	     -0.14235388	      5.26849843	      8.54642907	      1.12601492
      1.09633333	     -1.42385325	     -4.63053355	     -2.53125980	     -0.09274995	      1.04767894	      0.34473340	    -13.00307316	      9.54124326	      0.68179163	     -8.95188493	      7.58160176	     -9.70265775	      2.32047771	     21.09081472	     -2.00209992	     -8.03974790	      3.06013236	      2.99991433	      5.51318048	     -0.14804833	      5.35858523	      8.49193544	      1.14643171
      1.10050000	     -1.47313174	     -4.60349463	     -2.54658219	     -0.08677581	      1.04729802	      0.34460533	    -12.92702729	      9.46793343	      0.41512782	     -9.66121263	      7.47415166	     -9.45790551	      2.35351810	     21.08593065	     -1.91034011	     -8.03181206	      2.69012460	      2.45835638	      5.09103167	     -0.17990499	      5.31922731	      8.45187035	      1.19724821
      1.10466667	     -1.44983051	     -4.56109863	     -2.53990280	     -0.08070536	      1.04705923	      0.34440304	    -12.94343350	      9.36630441	      0.26040279	    -10.35401897	      7.49756664	     -8.89941009	      2.47670755	     20.91449450	     -1.79211559	     -7.46589827	      2.45620679	      1.85541432	      3.97735020	     -0.23330615	      5.49924481	      8.42749741	      1.33188834
      1.10883333	     -1.40959728	     -4.55695705	     -2.54932474	     -0.07478418	      1.04686231	      0.34449674	    -12.95317952	      9.33224935	      0.21561321	    -11.08856698	      7.40959118	     -8.91124292	      2.48457990	     20.79442128	     -1.75670167	     -7.42187402	      2.05634848	      1.76096155	      3.93533311	     -0.23581704	      5.54229691	      8.34805931	      1.34438234
      1.11300000	     -1.44153957	     -4.50664746	     -2.56381443	     -0.06868781	      1.04662153	      0.34438917	    -12.84439726	      9.22531437	     -0.08692930	    -11.88888624	      7.15919060	     -8.81344178	      2.51537570	     20.73578895	     -1.65239194	     -7.47307507	      1.68123262	      1.31665731	      3.66919037	     -0.24643555	      5.45742552	      8.27226313	      1.35859942
      1.11716667	     -1.42912744	     -4.44186914	     -2.58274959	     -0.06250697	      1.04650293	      0.34426030	    -12.77744029	      9.08876397	     -0.35272431	    -12.70036792	      6.82001569	     -8.50713195	      2.57893271	     20.57627399	     -1.53560406	     -7.32710322	      1.40801333	      0.59505736	      3.16593385	     -0.25631127	      5.53304160	      8.19282486	      1.40224511
      1.12133333	     -1.38968270	     -4.40510472	     -2.53645288	     -0.05646032	      1.04640661	      0.34393568	    -12.71433047	      8.97795399	     -0.61325713	    -13.55866056	      6.78595946	     -7.98652361	      2.82930089	     20.35625805	     -1.41684822	     -6.65711797	      1.19495351	     -0.09172651	      1.70380093	     -0.22520716	      5.62801803	      8.12051638	      1.46849297
      1.12550000	     -1.37977711	     -4.33351296	     -2.57358539	     -0.05027487	      1.04636230	      0.34389224	    -12.59849496	      8.82768079	     -0.86545256	    -14.46050275	      6.49393430	     -7.90123441	      2.87143805	     20.19599109	     -1.31569471	     -6.67639608	      0.88755744	     -0.41104579	      1.61297024	     -0.22027218	      5.62901542	      8.03747822	      1.47515677
      1.12966667	     -1.33956672	     -4.26558615	     -2.55342967	     -0.04409626	      1.04637811	      0.34376257	    -12.49413058	      8.68334573	     -1.17723068	    -15.37436178	      6.00951091	     -7.57572010	      2.95772218	     20.00846970	     -1.20253952	     -6.64996281	      0.60012065	     -1.08272657	      1.26700465	     -0.20971410	      5.69362436	      7.89113760	      1.50881630
      1.13383333	     -1.31056229	     -4.18485208	     -2.55622583	     -0.03790267	      1.04642497	      0.34357368	    -12.34915018	      8.50487573	     -1.48761720	    -16.34304065	      5.60180706	     -7.20938248	      3.08093663	     19.80224610	     -1.07880816	     -6.49420549	      0.35001121	     -1.72188964	      0.69571754	     -0.18507462	      5.77053177	      7.75325746	      1.54472884
      1.13800000	     -1.28510063	     -4.08274007	     -2.56469047	     -0.03168174	      1.04651504	      0.34332924	    -12.17208547	      8.28754703	     -1.83310086	    -17.36317203	      5.17412883	     -6.84301581	      3.22703963	     19.58372150	     -0.93297652	     -6.29455976	      0.12626714	     -2.32305948	      0.08790840	     -0.14971316	      5.81391448	      7.61753065	      1.57307981
      1.14216667	     -1.26361006	     -3.96652831	     -2.59229275	     -0.02547514	      1.04664620	      0.34292934	    -11.95824162	      8.02282682	     -2.16915866	    -18.45130531	      4.91139375	     -6.36831526	      3.66523530	     19.31328156	     -0.76435282	     -5.70865446	      0.01026144	     -3.06195152	     -1.20234900	     -0.01685276	      5.87885384	      7.52968719	      1.57556459
      1.14633333	     -1.21436688	     -3.84592107	     -2.58540589	     -0.01925027	      1.04683989	      0.34275115	    -11.75612878	      7.78087060	     -2.53670439	    -19.54076398	      4.33500549	     -6.11643984	      3.77617938	     19.09521289	     -0.61583470	     -5.76436347	     -0.27870324	     -3.42993570	     -1.30124116	      0.01503726	      5.91276371	      7.33743646	      1.59675990
      1.15050000	     -1.20297404	     -3.68183257	     -2.65735992	     -0.01295395	      1.04706723	      0.34256943	    -11.48151132	      7.45736935	     -2.84776269	    -20.70126462	      3.85156503	     -5.90724122	      3.85459357	     18.86916904	     -0.44112223	     -5.72430548	     -0.49645457	     -3.75028937	     -1.41229836	      0.03601283	      5.88281301	      7.19216613	      1.60217552
      1.15466667	     -1.15093373	     -3.54510307	     -2.65080834	     -0.00682873	      1.04733755	      0.34207985	    -11.21229062	      7.14587519	     -3.23698832	    -21.88643805	      3.15631324	     -5.28984290	      4.43283322	     18.59679357	     -0.25143780	     -5.28873621	     -0.65709694	     -4.66397989	     -2.70690848	      0.19892621	      6.00386061	      7.02368775	      1.60425891
      1.15883333	     -1.12180979	     -3.35114137	     -2.70144201	     -0.00059058	      1.04764472	      0.34185834	    -10.89612801	      6.77604973	     -3.57325750	    -23.13735543	      2.70236321	     -5.14904913	      4.49392056	     18.36732905	     -0.04876110	     -5.29793257	     -0.91385380	     -4.81164935	     -2.68559014	      0.21701271	      5.96446519	      6.82916712	      1.61686021
      1.16300000	     -1.05262288	     -3.17247522	     -2.67385356	      0.00556580	      1.04800827	      0.34159334	    -10.60383885	      6.43427207	     -3.93814910	    -24.35391265	      1.68429825	     -4.66966277	      4.64005716	     18.13472524	      0.15157826	     -5.37075608	     -1.22106094	     -5.21249504	     -2.86501150	      0.25190251	      6.05352655	      6.46387884	      1.66171403
      1.16716667	     -1.01546379	     -2.94397474	     -2.75863779	      0.01179985	      1.04840822	      0.34125625	    -10.24142815	      5.98423840	     -4.21200501	    -25.64543821	      0.75705324	     -4.25142155	      4.97420961	     17.85441182	      0.38979035	     -5.16887159	     -1.38758404	     -5.68031654	     -3.32800247	      0.33259909	      6.16708454	      6.28159020	      1.65493275
